<svg width="138" height="41" viewBox="0 0 138 41" fill="none" xmlns="http://www.w3.org/2000/svg">
<g clip-path="url(#clip0_678_56978)">
<path d="M6.49498 23.0423C4.67088 23.0423 2.84641 23.0416 1.02231 23.0434C0.801835 23.0441 0.610614 23.0788 0.654854 22.7301C1.27824 17.8015 3.43616 13.7414 7.66205 10.9501C13.4674 7.1172 21.0037 8.33091 25.5894 13.7523C27.7385 16.2936 28.94 19.234 29.3787 22.5047C29.4376 22.9454 29.3261 23.0568 28.8767 23.0543C25.5173 23.0354 22.158 23.0448 18.799 23.0416C17.9164 23.0409 17.3778 22.5239 17.3734 21.6933C17.3687 20.8482 17.9219 20.3219 18.8312 20.3201C21.0202 20.3146 23.2095 20.3139 25.3978 20.3161C25.6332 20.3164 25.8237 20.3381 25.7071 19.9912C24.4969 16.387 22.4066 13.4849 18.7599 12.0256C14.6875 10.3958 11.0379 11.3408 7.87083 14.2428C6.17323 15.7991 5.07745 17.7476 4.37033 19.9221C4.25845 20.2669 4.33779 20.3211 4.67088 20.3197C7.05695 20.3103 9.44374 20.3135 11.8305 20.3197C12.7665 20.3226 13.3161 20.8978 13.2616 21.7982C13.2163 22.5532 12.7088 23.0358 11.9216 23.0398C10.1121 23.0477 8.30336 23.0427 6.49498 23.0427" fill="white"/>
<path d="M59.329 33.8033C59.1813 34.0109 59.0727 34.1665 58.9608 34.3202C56.582 37.5775 53.4698 39.7333 49.4004 40.273C44.5537 40.9148 40.5304 39.2304 37.2708 35.6942C35.2438 33.4958 34.0482 30.869 33.4197 27.976C33.2347 27.1248 33.7279 26.3112 34.5286 26.1108C35.3608 25.9028 36.1813 26.3901 36.4145 27.2543C36.7644 28.5476 37.076 29.85 37.6836 31.06C39.0207 33.7233 40.9402 35.8082 43.7362 36.9995C47.641 38.6636 52.1126 37.6235 55.1737 34.347C56.9711 32.4228 58.1166 30.1654 58.5732 27.5741C58.7443 26.6086 59.5041 26.0062 60.4354 26.0851C61.3684 26.1636 62.0331 26.928 62.0313 27.8986C62.0284 29.1937 61.9955 30.4899 62.0547 31.7821C62.1052 32.8837 62.4657 33.8836 63.2313 34.7435C64.2156 35.8498 65.1333 37.0143 66.0839 38.1499C66.3855 38.5102 66.5793 38.911 66.5614 39.3846C66.5402 39.9862 66.1347 40.4973 65.5431 40.6981C64.9146 40.9105 64.3373 40.7842 63.93 40.3005C62.7425 38.8907 61.5567 37.4781 60.3911 36.0498C59.8734 35.4157 59.6131 34.6408 59.3297 33.8037" fill="white"/>
<path d="M74.0557 37.676H74.863C82.3426 37.676 89.8222 37.6757 97.3018 37.6771C97.7116 37.6771 98.1321 37.676 98.4977 37.8819C99.0597 38.1991 99.3116 38.897 99.1471 39.58C99.003 40.1751 98.486 40.5896 97.8264 40.6352C97.7504 40.6403 97.6747 40.6367 97.5983 40.6367C88.6745 40.6367 79.7507 40.6374 70.8269 40.6367C69.9205 40.6367 69.3859 40.2467 69.1976 39.4335C69.0572 38.8235 69.3519 38.3597 69.7483 37.935C71.274 36.3024 72.8001 34.6694 74.32 33.0317C76.3226 30.8731 78.3174 28.7061 80.3225 26.5497C80.9726 25.8504 81.7305 25.7939 82.3499 26.3673C83.0545 27.0203 83.106 27.8072 82.4607 28.5119C81.1653 29.9267 79.8574 31.3307 78.5543 32.738C77.169 34.2346 75.7807 35.7283 74.3965 37.2263C74.2787 37.354 74.1851 37.5035 74.0553 37.6767" fill="white"/>
<path d="M94.3557 11.3628H93.8182C89.212 11.3599 84.6055 11.4077 80.0009 11.3342C76.8715 11.2843 73.7425 11.3226 70.6134 11.2828C69.793 11.272 69.1955 10.678 69.1743 9.85244C69.1531 9.03775 69.7948 8.3855 70.6295 8.3855C79.0352 8.38803 87.4413 8.3855 95.8467 8.4072C96.4964 8.40901 97.1498 8.47485 97.8009 8.4564C98.3735 8.44012 98.7592 8.70457 99.0207 9.17016C99.2989 9.66433 99.3124 10.1704 99.0049 10.6632C98.707 11.1421 98.2755 11.5097 97.9 11.9199C96.0423 13.9465 94.1593 15.9492 92.2881 17.9624C90.8895 19.467 89.4991 20.9788 88.0965 22.4794C87.3876 23.2373 86.7181 23.2999 86.0366 22.7015C85.3496 22.0988 85.2885 21.2563 85.9291 20.545C87.1123 19.2326 88.3152 17.9389 89.5166 16.6434C91.0468 14.9931 92.5846 13.3492 94.1165 11.701C94.1864 11.6265 94.2365 11.5335 94.3553 11.3632" fill="white"/>
<path d="M33.292 21.439C33.2971 21.3905 33.2938 21.2827 33.322 21.1822C34.2682 17.6684 35.8192 14.5048 38.6623 12.0795C44.6878 6.93925 53.3505 7.8082 58.3837 14.0645C59.7446 15.7557 60.719 17.6456 61.3343 19.7192C61.4627 20.1522 61.6206 20.5762 61.7511 21.0082C62.0038 21.8431 61.5884 22.6654 60.7866 22.9364C59.9917 23.2062 59.145 22.7982 58.851 21.9639C58.5512 21.112 58.3325 20.2318 58.0123 19.3886C56.4609 15.3061 53.8035 12.34 49.3272 11.4464C45.939 10.7714 42.9949 11.8588 40.4955 14.1542C38.7877 15.7232 37.6396 17.6517 36.9446 19.8494C36.7175 20.5672 36.5088 21.2907 36.2528 21.9987C35.9921 22.7193 35.2634 23.1266 34.5592 22.996C33.8298 22.8615 33.2916 22.2226 33.2927 21.439" fill="white"/>
<path d="M14.2417 40.4122C9.97487 40.2693 6.1614 37.9924 3.36839 33.9381C2.10187 32.0996 1.31395 30.0568 0.860208 27.8837C0.685074 27.0433 1.20243 26.2507 2.02984 26.0647C2.85542 25.8784 3.6576 26.3599 3.86089 27.2133C4.28246 28.9784 4.82212 30.6967 5.80272 32.2476C7.51166 34.9467 9.80888 36.9082 13.0242 37.5528C16.8409 38.318 20.0182 37.0438 22.6679 34.3165C23.3988 33.5641 23.9015 32.6405 24.5399 31.8186C24.6873 31.6275 24.8247 31.4239 25.001 31.2622C25.5783 30.7307 26.3808 30.7061 26.9497 31.184C27.5585 31.6941 27.6484 32.4961 27.2166 33.173C25.9004 35.2336 24.3052 37.0258 22.2014 38.3342C19.9981 39.7042 17.6011 40.4162 14.2417 40.4122Z" fill="white"/>
<path d="M127.502 26.3594C128.056 26.3395 128.457 26.5754 128.753 26.9585C130.021 28.6078 131.276 30.2668 132.532 31.9255C134.124 34.0284 135.688 36.153 137.314 38.2306C137.924 39.0106 137.606 39.911 137.1 40.3184C136.443 40.8462 135.527 40.7065 134.973 39.9892C134.31 39.1296 133.663 38.2585 133.008 37.3935C130.851 34.545 128.696 31.6954 126.536 28.8491C125.857 27.9541 126.042 26.9082 126.967 26.4687C127.152 26.3811 127.341 26.3504 127.502 26.3598" fill="white"/>
<path d="M121.373 22.6684C120.819 22.7049 120.424 22.4184 120.126 22.0259C117.312 18.3182 114.525 14.5902 111.69 10.8974C110.936 9.91518 111.617 8.68989 112.584 8.51914C113.096 8.4287 113.516 8.62695 113.853 8.97279C114.455 9.58887 114.923 10.3146 115.442 10.9979C117.818 14.1304 120.183 17.2709 122.561 20.4016C122.94 20.9001 122.929 21.3979 122.652 21.9126C122.381 22.4162 121.967 22.7085 121.373 22.6687" fill="white"/>
<path d="M125.886 21.0063C125.857 20.7578 125.99 20.5078 126.165 20.2748C128.944 16.5971 131.724 12.9206 134.501 9.2436C135.18 8.34607 135.966 8.12938 136.72 8.63838C137.434 9.12024 137.6 10.0037 137.082 10.6892C134.958 13.5019 132.826 16.3092 130.699 19.1197C130.027 20.0089 129.361 20.9032 128.692 21.7949C128.087 22.6006 127.225 22.8042 126.522 22.2967C126.106 21.9961 125.883 21.5844 125.886 21.0063" fill="white"/>
<path d="M121.531 26.3518C122.227 26.3485 122.62 26.6618 122.887 27.165C123.158 27.6784 123.131 28.1497 122.763 28.632C119.916 32.3769 117.083 36.1331 114.241 39.8817C113.701 40.5925 112.84 40.7224 112.162 40.217C111.484 39.7124 111.375 38.8651 111.916 38.1488C114.543 34.673 117.175 31.2001 119.805 27.7261C120.086 27.3553 120.309 26.944 120.698 26.6538C120.981 26.4433 121.277 26.3362 121.53 26.3521" fill="white"/>
<path d="M106.931 33.3214C106.931 35.2782 106.902 37.2346 106.945 39.1903C106.962 39.9663 106.328 40.5842 105.501 40.6117C104.649 40.641 104.007 40.0202 104.006 39.1885C104.001 35.2757 104.001 31.3632 104.006 27.4508C104.007 26.5952 104.661 25.9889 105.53 26.0088C106.383 26.0276 106.929 26.5858 106.93 27.4526C106.932 29.409 106.931 31.365 106.931 33.3214Z" fill="white"/>
<path d="M103.813 15.7347C103.813 13.7939 103.839 11.8519 103.801 9.91144C103.785 9.04574 104.379 8.42098 105.261 8.41628C106.237 8.41194 106.759 9.15138 106.752 9.93821C106.722 13.8054 106.74 17.6727 106.739 21.5406C106.738 22.2699 106.37 22.7594 105.698 22.9378C104.992 23.1241 104.31 22.8672 103.962 22.2989C103.82 22.0659 103.812 21.8159 103.812 21.5594C103.813 19.6175 103.813 17.6767 103.813 15.7351" fill="white"/>
<path d="M107.66 3.21355C107.654 4.53796 106.595 5.57984 105.26 5.57586C103.926 5.57224 102.824 4.46706 102.843 3.15386C102.862 1.82837 103.959 0.784683 105.32 0.796983C106.645 0.808559 107.666 1.86309 107.659 3.21355" fill="white"/>
</g>
<defs>
<clipPath id="clip0_678_56978">
<rect width="137" height="40" fill="white" transform="translate(0.648438 0.796875)"/>
</clipPath>
</defs>
</svg>
